<?xml version="1.0" standalone="no"?>
<!DOCTYPE svg PUBLIC "-//W3C//DTD SVG 20010904//EN"
 "http://www.w3.org/TR/2001/REC-SVG-20010904/DTD/svg10.dtd">
<svg version="1.0" xmlns="http://www.w3.org/2000/svg"
 width="650.000000pt" height="650.000000pt" viewBox="0 0 650.000000 650.000000"
 preserveAspectRatio="xMidYMid meet">
<metadata>
Created by potrace 1.11, written by Peter Selinger 2001-2013
</metadata>
<g transform="translate(0.000000,650.000000) scale(0.100000,-0.100000)"
fill="#000000" stroke="none">
<path d="M3170 6369 c-36 -4 -114 -13 -175 -19 -60 -7 -126 -15 -145 -20 -96
-22 -236 -64 -254 -75 -12 -7 -41 -19 -66 -26 -25 -7 -52 -18 -60 -24 -8 -6
-35 -20 -60 -30 -25 -11 -71 -35 -103 -55 -32 -19 -72 -44 -90 -55 -82 -50
-201 -149 -306 -255 -138 -140 -138 -139 -192 -220 -24 -36 -46 -67 -49 -70
-3 -3 -27 -41 -53 -85 -25 -44 -50 -85 -55 -91 -5 -6 -13 -21 -17 -35 -4 -13
-18 -45 -31 -71 -44 -87 -92 -231 -135 -403 -14 -54 -40 -225 -46 -302 -3 -48
-8 -63 -20 -63 -26 0 -126 -66 -169 -112 -77 -81 -114 -172 -114 -280 0 -68
17 -157 35 -178 7 -8 16 -26 20 -38 17 -57 154 -165 247 -195 10 -4 20 -25 27
-58 15 -70 82 -185 139 -241 75 -73 156 -120 257 -147 75 -21 211 -31 233 -17
14 8 30 -14 46 -65 8 -24 29 -82 47 -129 46 -123 87 -237 109 -300 11 -30 35
-98 55 -150 20 -52 45 -122 56 -155 11 -33 23 -69 29 -80 5 -11 25 -65 45
-120 20 -55 49 -134 65 -175 15 -41 32 -88 36 -105 4 -16 10 -34 14 -40 4 -5
18 -41 30 -80 12 -38 26 -74 30 -80 4 -5 15 -35 25 -65 9 -30 23 -68 30 -85 7
-16 20 -55 30 -85 10 -30 21 -59 25 -65 5 -5 16 -37 25 -70 10 -33 22 -67 26
-75 10 -17 62 -161 85 -235 9 -27 20 -54 24 -60 4 -5 17 -39 29 -75 11 -36 36
-108 56 -160 51 -135 134 -363 161 -441 34 -100 61 -147 94 -164 17 -9 30 -12
30 -8 0 4 5 2 11 -4 12 -12 27 -10 77 15 35 18 60 61 101 172 44 123 73 197
85 225 8 17 17 41 21 55 4 14 13 39 21 55 15 34 55 141 86 230 11 33 24 65 28
70 4 6 15 35 25 65 10 30 23 64 29 75 5 11 20 47 32 80 40 112 74 200 84 220
10 20 43 109 82 220 11 33 24 65 28 70 4 6 15 35 25 65 10 30 21 60 25 65 4 6
17 37 28 70 31 88 71 196 86 230 8 17 19 48 26 70 7 22 19 51 26 65 8 14 23
50 33 80 42 120 67 186 74 198 5 6 19 42 32 80 13 37 38 103 55 147 17 44 40
105 51 135 11 30 26 69 34 87 8 17 15 34 15 38 0 11 63 170 73 183 7 9 21 11
41 6 30 -7 135 -7 166 -1 109 23 237 87 308 156 55 53 127 166 142 219 18 70
31 91 60 97 67 15 169 103 219 190 48 82 65 212 39 312 -27 108 -118 216 -225
268 l-62 29 -4 71 c-9 130 -37 279 -76 410 -40 134 -80 247 -100 281 -6 10
-20 39 -31 64 -12 25 -26 54 -33 65 -7 11 -28 47 -47 80 -89 156 -257 354
-400 474 -81 67 -123 99 -190 144 -83 55 -283 158 -345 177 -22 7 -44 16 -50
20 -14 11 -198 60 -280 76 -38 7 -126 17 -195 23 -69 6 -138 12 -155 15 -16 2
-59 0 -95 -5z m-752 -3017 c82 -72 140 -105 217 -126 81 -23 111 -27 174 -27
l53 -1 -6 -31 c-4 -17 -15 -50 -26 -72 -10 -22 -26 -62 -35 -90 -9 -27 -25
-68 -36 -91 -10 -22 -19 -46 -19 -52 0 -6 -11 -35 -24 -64 -13 -29 -27 -64
-31 -78 -4 -14 -13 -38 -21 -55 -14 -32 -58 -148 -76 -202 -14 -42 -32 -42
-46 0 -44 126 -69 193 -74 202 -3 6 -16 42 -28 80 -12 39 -26 75 -30 80 -4 6
-15 35 -24 65 -9 30 -22 63 -27 73 -5 10 -19 44 -29 75 -54 160 -71 209 -82
230 -15 28 -4 49 40 77 17 11 35 30 41 43 6 12 13 22 17 22 3 0 36 -26 72 -58z
m896 4 c54 -54 172 -126 208 -126 23 0 34 -26 19 -44 -6 -7 -18 -38 -27 -67
-9 -30 -21 -63 -28 -74 -7 -11 -22 -47 -34 -80 -11 -33 -35 -96 -52 -140 -17
-44 -41 -107 -52 -140 -11 -33 -25 -65 -30 -71 -4 -6 -15 -36 -24 -65 -9 -30
-22 -65 -30 -79 -7 -14 -22 -50 -33 -80 -34 -95 -71 -194 -85 -225 -8 -16 -19
-48 -26 -70 -7 -22 -16 -44 -20 -50 -4 -5 -15 -35 -25 -65 -10 -30 -24 -66
-31 -80 -7 -14 -21 -50 -30 -80 -9 -30 -23 -64 -29 -75 -7 -11 -21 -44 -30
-74 -10 -29 -24 -65 -31 -80 -8 -14 -14 -31 -14 -37 0 -6 -6 -17 -14 -23 -12
-10 -15 -6 -21 21 -4 18 -12 42 -18 53 -6 11 -21 49 -34 85 -12 36 -36 103
-53 150 -17 47 -41 113 -53 148 l-21 62 21 63 c12 34 36 98 53 142 17 44 41
107 52 140 11 33 25 65 30 71 4 6 15 36 24 65 9 30 22 65 30 79 7 14 22 50 33
80 34 95 71 194 85 225 8 17 19 48 26 70 7 22 16 45 20 50 4 6 15 35 25 65 10
30 27 75 38 100 11 24 22 62 25 84 4 30 16 50 49 83 25 24 47 43 49 43 2 0 28
-24 58 -54z m889 7 c55 -51 61 -61 49 -76 -5 -7 -19 -39 -30 -72 -11 -33 -35
-96 -52 -140 -18 -44 -41 -105 -51 -135 -11 -30 -28 -73 -39 -96 -11 -22 -20
-46 -20 -54 0 -8 -9 -32 -20 -54 -11 -23 -28 -66 -39 -96 -30 -86 -70 -193
-81 -215 -11 -22 -51 -129 -82 -220 -11 -33 -24 -64 -28 -70 -4 -5 -15 -35
-25 -65 -10 -30 -22 -64 -28 -75 -10 -19 -29 -69 -78 -205 -11 -30 -28 -73
-39 -96 -11 -22 -20 -46 -20 -52 0 -7 -9 -31 -20 -55 -11 -23 -28 -67 -39 -97
-41 -114 -72 -196 -81 -215 -6 -11 -19 -45 -29 -75 -11 -30 -34 -91 -51 -135
-17 -44 -41 -107 -52 -140 -11 -33 -25 -65 -30 -71 -4 -6 -15 -36 -24 -65 -9
-30 -22 -64 -29 -75 -8 -12 -18 -36 -22 -55 -11 -42 -29 -48 -38 -12 -3 15
-15 45 -25 68 -10 22 -23 60 -30 84 -6 24 -16 51 -20 60 -19 33 -91 237 -96
273 -6 33 16 126 36 153 4 6 15 35 25 65 10 30 23 64 29 75 5 11 21 48 33 83
45 122 70 188 86 224 10 21 17 40 17 43 0 7 66 179 82 215 6 14 21 52 33 85
45 120 76 201 89 230 8 17 19 48 26 70 7 22 16 45 20 50 4 6 15 35 25 65 10
30 23 69 30 85 34 78 68 165 85 218 10 32 23 64 28 70 5 7 13 23 17 37 7 24
17 51 81 217 33 84 48 102 93 109 20 3 50 13 67 22 18 10 47 25 66 35 19 10
59 42 89 71 30 30 57 53 60 52 4 0 27 -20 52 -43z"/>
<path d="M4895 2856 c-16 -7 -37 -22 -46 -32 -21 -24 -135 -232 -144 -261 -3
-13 -11 -23 -16 -23 -5 0 -9 -4 -9 -9 0 -6 -18 -48 -40 -95 -22 -47 -40 -88
-40 -91 0 -3 -9 -25 -19 -48 -11 -23 -25 -78 -32 -122 -30 -202 59 -363 240
-432 163 -63 341 -11 450 131 49 64 71 132 71 220 0 56 -24 170 -40 191 -4 6
-17 35 -28 65 -23 64 -172 358 -202 400 -11 15 -20 33 -20 39 0 16 -52 67 -75
74 -11 3 -33 0 -50 -7z"/>
</g>
</svg>
